<svg width="30" height="30" viewBox="0 0 30 30" fill="none" xmlns="http://www.w3.org/2000/svg">
<path d="M6 3H30L25.5 16.5H6C5.172 16.5 4.5 17.172 4.5 18C4.5 18.828 5.172 19.5 6 19.5H25.5V22.5H6C3.5145 22.5 1.5 20.4855 1.5 18C1.5 15.5145 3.5145 13.5 6 13.5H6.495L4.5 7.5L3 3H0V0H4.5C5.328 0 6 0.672 6 1.5V3ZM7.5 30C5.8425 30 4.5 28.6575 4.5 27C4.5 25.3425 5.8425 24 7.5 24C9.1575 24 10.5 25.3425 10.5 27C10.5 28.6575 9.1575 30 7.5 30ZM22.5 30C20.8425 30 19.5 28.6575 19.5 27C19.5 25.3425 20.8425 24 22.5 24C24.1575 24 25.5 25.3425 25.5 27C25.5 28.6575 24.1575 30 22.5 30Z" fill="#D9D9D9"/>
</svg>
