<svg width="26" height="22" viewBox="0 0 26 22" fill="none" xmlns="http://www.w3.org/2000/svg">
<path d="M5.62556 9.52111C7.46556 12.98 10.43 15.8033 14.0461 17.5756L16.8572 14.8867C17.2022 14.5567 17.7133 14.4467 18.1606 14.5933C19.5917 15.0456 21.1378 15.29 22.7222 15.29C23.425 15.29 24 15.84 24 16.5122V20.7778C24 21.45 23.425 22 22.7222 22C10.7239 22 1 12.6989 1 1.22222C1 0.55 1.575 0 2.27778 0H6.75C7.45278 0 8.02778 0.55 8.02778 1.22222C8.02778 2.75 8.28333 4.21667 8.75611 5.58556C8.89667 6.01333 8.79444 6.49 8.43667 6.83222L5.62556 9.52111Z" fill="#868686"/>
</svg>
