<svg width="21" height="26" viewBox="0 0 21 26" fill="none" xmlns="http://www.w3.org/2000/svg">
<path d="M10.5 0C7.71624 0.00319472 5.04743 1.08037 3.07901 2.99522C1.1106 4.91008 0.00329525 7.50627 1.11709e-05 10.2143C-0.00332295 12.4273 0.739765 14.5802 2.11528 16.3429C2.11528 16.3429 2.40165 16.7096 2.44842 16.7626L10.5 26L18.5554 16.7579C18.5974 16.7087 18.8847 16.3429 18.8847 16.3429L18.8857 16.3401C20.2605 14.5782 21.0033 12.4263 21 10.2143C20.9967 7.50627 19.8894 4.91008 17.921 2.99522C15.9526 1.08037 13.2838 0.00319472 10.5 0ZM10.5 13.9286C9.74483 13.9286 9.00663 13.7107 8.37873 13.3026C7.75084 12.8945 7.26145 12.3144 6.97246 11.6357C6.68348 10.957 6.60786 10.2102 6.75519 9.48966C6.90251 8.76916 7.26616 8.10734 7.80014 7.58789C8.33412 7.06844 9.01446 6.71468 9.75511 6.57137C10.4958 6.42805 11.2635 6.50161 11.9612 6.78273C12.6588 7.06386 13.2552 7.53993 13.6747 8.15074C14.0942 8.76155 14.3182 9.47967 14.3182 10.2143C14.3169 11.199 13.9142 12.143 13.1985 12.8393C12.4827 13.5356 11.5123 13.9273 10.5 13.9286Z" fill="#868686"/>
</svg>
